<svg xmlns="http://www.w3.org/2000/svg" viewBox="0 0 95.91 97.75"><defs><style>.cls-1{fill:#69e3ef;stroke-width:6px;}.cls-1,.cls-2,.cls-3,.cls-4{stroke:#fff;stroke-miterlimit:10;}.cls-2{fill:none;stroke-width:5px;}.cls-3,.cls-4{fill:#fff;}.cls-3{stroke-width:0.75px;}.cls-4{stroke-width:2px;}</style></defs><title>Asset 3</title><g id="Layer_2" data-name="Layer 2"><g id="Layer_1-2" data-name="Layer 1"><path class="cls-1" d="M89.57,25.63,51.72,3.89a6.65,6.65,0,0,0-6.59,0L6.4,25.64A6.66,6.66,0,0,0,3,31.45V88.09a6.66,6.66,0,0,0,6.67,6.66H86.25a6.66,6.66,0,0,0,6.66-6.66V31.41A6.66,6.66,0,0,0,89.57,25.63Z"/><circle class="cls-2" cx="47.96" cy="55" r="28.93"/><circle class="cls-3" cx="47.96" cy="39.32" r="4.11"/><path class="cls-4" d="M48,47h0a5.84,5.84,0,0,0-6,5.62v4.56a5.53,5.53,0,0,0,2.72,4.7V71a3.31,3.31,0,0,0,6.61,0V61.89A5.54,5.54,0,0,0,54,57.19V52.63A5.84,5.84,0,0,0,48,47Z"/></g></g></svg>