<svg xmlns="http://www.w3.org/2000/svg" viewBox="0 0 89.91 91.75"><defs><style>.cls-1{fill:#69e3ef;}.cls-2{fill:none;stroke-width:5px;}.cls-2,.cls-3,.cls-4{stroke:#fff;stroke-miterlimit:10;}.cls-3,.cls-4{fill:#fff;}.cls-3{stroke-width:0.75px;}.cls-4{stroke-width:2px;}</style></defs><title>Asset 3</title><g id="Layer_2" data-name="Layer 2"><g id="Layer_1-2" data-name="Layer 1"><path class="cls-1" d="M86.57,22.63,48.72.89a6.65,6.65,0,0,0-6.59,0L3.4,22.64A6.66,6.66,0,0,0,0,28.45V85.09a6.66,6.66,0,0,0,6.67,6.66H83.25a6.66,6.66,0,0,0,6.66-6.66V28.41A6.66,6.66,0,0,0,86.57,22.63Z"/><circle class="cls-2" cx="44.96" cy="52" r="28.93"/><circle class="cls-3" cx="44.96" cy="36.32" r="4.11"/><path class="cls-4" d="M45,44h0a5.84,5.84,0,0,0-6,5.62v4.56a5.53,5.53,0,0,0,2.72,4.7V68a3.31,3.31,0,0,0,6.61,0V58.89A5.54,5.54,0,0,0,51,54.19V49.63A5.84,5.84,0,0,0,45,44Z"/></g></g></svg>