<svg xmlns="http://www.w3.org/2000/svg" viewBox="0 0 117.77 120.06"><defs><style>.cls-1{fill:none;stroke:#fff;stroke-miterlimit:10;stroke-width:6px;}.cls-2{fill:#fff;}</style></defs><title>Asset 3</title><g id="Layer_2" data-name="Layer 2"><g id="Layer_1-2" data-name="Layer 1"><path class="cls-1" d="M110.61,31.13l-47-27a8.3,8.3,0,0,0-8.19,0L7.22,31.15A8.26,8.26,0,0,0,3,38.37v70.4a8.29,8.29,0,0,0,8.29,8.29h95.2a8.29,8.29,0,0,0,8.28-8.29V38.32A8.28,8.28,0,0,0,110.61,31.13Z"/><path class="cls-2" d="M58.89,34.25a31.91,31.91,0,1,0,31.9,31.9A31.91,31.91,0,0,0,58.89,34.25Zm0,10.2a4.74,4.74,0,1,1-4.74,4.74A4.74,4.74,0,0,1,58.89,44.45Zm7,24.21a6.38,6.38,0,0,1-3.14,5.42V84.55a3.82,3.82,0,0,1-7.63,0V74.08a6.38,6.38,0,0,1-3.14-5.42V63.4a7,7,0,0,1,13.91,0Z"/></g></g></svg>