<svg xmlns="http://www.w3.org/2000/svg" viewBox="0 0 263 290.61"><defs><style>.cls-1{fill:#fff;}.cls-1,.cls-2,.cls-3{stroke:#000;stroke-miterlimit:10;}.cls-2,.cls-3{fill:none;}.cls-2{stroke-width:4px;}.cls-3{stroke-width:18px;}</style></defs><title>Asset 3</title><g id="Layer_2" data-name="Layer 2"><g id="Layer_1-2" data-name="Layer 1"><path class="cls-1" d="M.5,93.78V196.83A41.75,41.75,0,0,0,21.38,233l89.24,51.53a41.76,41.76,0,0,0,41.76,0L241.62,233a41.75,41.75,0,0,0,20.88-36.16v-103a41.75,41.75,0,0,0-20.88-36.16L152.38,6.09a41.81,41.81,0,0,0-41.76,0L21.38,57.62A41.75,41.75,0,0,0,.5,93.78Z"/><polygon points="174 196.81 151 184.81 151 148.81 175 135.81 174 196.81"/><polygon class="cls-2" points="175.5 193.31 195.5 182.26 195.5 108.36 131.5 71.41 67.5 108.36 67.5 182.26 131.5 219.21 152.5 207.31 152.5 207.31 152.68 149.31 176 136.81 175.5 193.31 175.5 193.31"/><path class="cls-3" d="M23.68,97.64V193a25.25,25.25,0,0,0,12.63,21.88l82.56,47.66a25.22,25.22,0,0,0,25.26,0l82.56-47.66A25.25,25.25,0,0,0,239.32,193V97.64a25.27,25.27,0,0,0-12.63-21.88L144.13,28.1a25.27,25.27,0,0,0-25.26,0L36.31,75.76A25.27,25.27,0,0,0,23.68,97.64Z"/></g></g></svg>