<svg id="_ÎÓÈ_1" data-name="—ÎÓÈ_1" xmlns="http://www.w3.org/2000/svg" viewBox="0 0 4110.24 2252.28"><defs><style>.cls-1{fill:#ccf3ff;}.cls-2{fill:#8ae4eb;}.cls-13,.cls-3,.cls-8{fill:#fff;}.cls-3,.cls-6,.cls-9{stroke:#4fcddb;}.cls-3{stroke-linecap:round;}.cls-10,.cls-12,.cls-13,.cls-3,.cls-5,.cls-6,.cls-7,.cls-9{stroke-linejoin:round;}.cls-10,.cls-12,.cls-13,.cls-14,.cls-3,.cls-5,.cls-6,.cls-7,.cls-9{stroke-width:10px;}.cls-10,.cls-4,.cls-9{fill:#4fcddb;}.cls-12,.cls-14,.cls-5,.cls-6,.cls-7{fill:none;}.cls-5{stroke:#fff;}.cls-10,.cls-13,.cls-14,.cls-7{stroke:#3e5f6e;}.cls-11{fill:#3e5f6e;}.cls-12{stroke:#ccf3ff;}.cls-14{stroke-miterlimit:10;}</style></defs><title>signon</title><rect class="cls-1" width="4110.24" height="2246.81"/><polygon class="cls-2" points="2232.9 888.28 2232.9 1719.82 2049.35 1719.82 2049.35 634.37 2049.35 571.37 1758.28 571.4 1758.28 634.37 1664.53 634.37 1664.53 1577.78 1606.76 1577.78 1606.76 1550.66 1375.39 1550.66 1375.39 2246.81 1670.31 2246.81 1670.31 2246.4 2049.35 2246.4 2049.35 2246.76 2480.13 2246.76 2480.13 963.22 2402.38 963.22 2402.38 888.28 2232.9 888.28"/><polygon class="cls-2" points="2809.41 1350.84 2743.9 1350.84 2743.9 1395.43 2693.59 1395.43 2693.59 2246.81 2951.19 2246.81 2951.19 1395.43 2809.41 1395.43 2809.41 1350.84"/><polygon class="cls-2" points="1072.74 1017.8 1052.06 1017.8 1052.06 1142.85 937.28 1203.32 937.28 1772.56 761.83 1772.56 761.83 2246.81 937.28 2246.81 1189.17 2246.81 1189.17 1203.32 1072.74 1142.77 1072.74 1017.8"/><polygon class="cls-2" points="3397.96 1761.03 3397.96 1153.89 3252.57 1087.96 3105.66 1153.89 3105.66 2246.76 3397.96 2246.76 3703.27 2246.76 3703.27 1761.03 3397.96 1761.03"/><path class="cls-3" d="M1134.85,640.33a69.13,69.13,0,0,1,41.51,13.78,85.06,85.06,0,0,1,168.08,7.41,72,72,0,0,1,125.44,48.27H1065.39A69.46,69.46,0,0,1,1134.85,640.33Z" transform="translate(0 0)"/><path class="cls-3" d="M2423.29,646.21a53.67,53.67,0,0,1,43.1,21.63A95,95,0,1,1,2644.89,700H2369.54A53.76,53.76,0,0,1,2423.29,646.21Z" transform="translate(0 0)"/><circle class="cls-3" cx="1575.59" cy="690.02" r="19.76" transform="translate(816.4 2233.46) rotate(-87.46)"/><path class="cls-3" d="M2694.9,660A20.07,20.07,0,1,1,2674.84,680,20.08,20.08,0,0,1,2694.9,660Z" transform="translate(0 0)"/><circle class="cls-3" cx="3065.86" cy="680.01" r="20.15" transform="translate(2087.06 3663.95) rotate(-84.35)"/><circle class="cls-3" cx="2149.68" cy="340.68" r="88.4" transform="translate(388.73 1619.84) rotate(-45)"/><rect class="cls-3" x="1469.88" y="709.64" width="58.77" height="0.01" transform="translate(2998.53 1419.3) rotate(180)"/><rect class="cls-3" x="2966.5" y="700.11" width="99.36" height="0.01"/><polygon class="cls-3" points="2369.54 699.96 2225.95 699.96 2225.95 699.96 2369.54 699.96 2369.54 699.96"/><polygon class="cls-3" points="2837.13 755.63 2546.43 755.63 2546.43 755.63 2837.13 755.63 2837.13 755.63"/><polygon class="cls-3" points="3046.97 755.63 2886.03 755.63 2886.03 755.63 3046.97 755.63 3046.97 755.63"/><polygon class="cls-3" points="1480.55 755.63 1266.78 755.63 1266.78 755.63 1480.55 755.63 1480.55 755.63"/><polygon class="cls-3" points="1612.96 755.63 1516.51 755.63 1516.51 755.63 1612.96 755.63 1612.96 755.63"/><polygon class="cls-1" points="1937.89 2246.12 1790.23 2246.12 1790.23 1096.47 2139.85 925.75 1937.89 2246.12"/><polygon class="cls-4" points="2139.85 925.75 2139.85 2246.12 1937.89 2246.12 2139.85 925.75"/><rect class="cls-5" x="1790.23" y="1125.36" width="350.3" height="141.26"/><rect class="cls-5" x="1790.23" y="1266.62" width="350.3" height="141.26"/><rect class="cls-5" x="1790.23" y="1407.88" width="350.3" height="141.26"/><rect class="cls-5" x="1790.23" y="1549.14" width="350.3" height="141.26"/><rect class="cls-5" x="1790.23" y="1690.4" width="350.3" height="141.26"/><rect class="cls-5" x="1790.23" y="1831.66" width="350.3" height="141.26"/><rect class="cls-6" x="1790.23" y="1156.02" width="350.3" height="141.26"/><rect class="cls-6" x="1790.23" y="1297.28" width="350.3" height="141.26"/><rect class="cls-6" x="1790.23" y="1438.55" width="350.3" height="141.26"/><rect class="cls-6" x="1790.23" y="1579.81" width="350.3" height="141.26"/><rect class="cls-6" x="1790.23" y="1721.07" width="350.3" height="141.26"/><rect class="cls-6" x="1790.23" y="1862.33" width="350.3" height="141.26"/><polygon class="cls-7" points="1790.23 1096.47 1790.23 2246.12 1937.89 2246.12 2139.85 2246.12 2139.85 925.75 1790.23 1096.47"/><rect class="cls-7" x="1790.23" y="1135.28" width="350.3" height="141.26"/><rect class="cls-7" x="1790.23" y="1276.55" width="350.3" height="141.26"/><rect class="cls-7" x="1790.23" y="1417.81" width="350.3" height="141.26"/><rect class="cls-7" x="1790.23" y="1559.07" width="350.3" height="141.26"/><rect class="cls-7" x="1790.23" y="1700.33" width="350.3" height="141.26"/><rect class="cls-7" x="1790.23" y="1841.59" width="350.3" height="141.26"/><circle class="cls-4" cx="281.55" cy="2116.04" r="38.31" transform="matrix(0.23, -0.97, 0.97, 0.23, -1842.57, 1903.89)"/><circle class="cls-7" cx="281.55" cy="2116.04" r="38.31" transform="matrix(0.23, -0.97, 0.97, 0.23, -1842.57, 1903.89)"/><circle class="cls-8" cx="228.65" cy="2040.75" r="72.25"/><path class="cls-4" d="M265.72,1993a61.16,61.16,0,0,1-95.37,66.56A61.16,61.16,0,1,0,265.72,1993Z" transform="translate(0 0)"/><circle class="cls-7" cx="228.65" cy="2040.75" r="72.25"/><rect class="cls-7" x="231.32" y="2080.36" height="166.89" transform="translate(462.65 4327.6) rotate(180)"/><polygon class="cls-7" points="231.32 2147.61 231.32 2147.61 184.21 2100.49 184.21 2100.49 231.32 2147.61"/><polygon class="cls-7" points="231.32 2177.9 231.32 2177.9 278.43 2130.8 278.43 2130.8 231.32 2177.9"/><circle class="cls-8" cx="170.41" cy="2119.91" r="45.02" transform="translate(-257.74 36.7) rotate(-7.02)"/><path class="cls-4" d="M191.29,2093.61a34.3,34.3,0,0,1-53.48,37.33,34.3,34.3,0,1,0,53.48-37.33Z" transform="translate(0 0)"/><circle class="cls-7" cx="170.41" cy="2119.91" r="45.02" transform="translate(-257.74 36.7) rotate(-7.02)"/><circle class="cls-8" cx="3955.1" cy="2064.68" r="81.83" transform="translate(1510.74 5797.08) rotate(-84.35)"/><path class="cls-4" d="M3997.39,2010.17a69.81,69.81,0,0,1-108.85,76,69.81,69.81,0,1,0,108.85-76Z" transform="translate(0 0)"/><circle class="cls-7" cx="3955.1" cy="2064.68" r="81.83" transform="translate(1510.74 5797.08) rotate(-84.35)"/><rect class="cls-7" x="3958.13" y="2109.54" height="136.6" transform="translate(7916.25 4355.69) rotate(180)"/><polygon class="cls-7" points="3958.13 2185.71 3958.13 2185.71 3904.77 2132.36 3904.77 2132.36 3958.13 2185.71"/><circle class="cls-8" cx="3889.13" cy="2154.35" r="50.99"/><path class="cls-4" d="M3912.71,2124.68a38.71,38.71,0,0,1-60.37,42.13,38.72,38.72,0,1,0,60.37-42.13Z" transform="translate(0 0)"/><circle class="cls-7" cx="3889.13" cy="2154.35" r="50.99"/><rect class="cls-7" x="159.2" y="2246.81" width="3846.07" height="0.43"/><polygon class="cls-8" points="1912.53 1500.75 1740.81 1354.85 1569.1 1500.75 1569.1 2246.14 1912.53 2246.14 1912.53 1500.75"/><polygon class="cls-7" points="1912.53 1500.75 1740.81 1354.85 1569.1 1500.75 1569.1 2246.14 1912.53 2246.14 1912.53 1500.75"/><rect class="cls-7" x="526.39" y="1481.76" width="173" height="114.62"/><rect class="cls-8" x="421.47" y="1596.38" width="343.43" height="650.86"/><rect class="cls-7" x="421.47" y="1596.38" width="343.43" height="650.86"/><rect class="cls-9" x="641.51" y="1809.38" width="88.85" height="22"/><rect class="cls-9" x="446.68" y="2029.38" width="88.85" height="22"/><rect class="cls-10" x="467.24" y="1641.36" width="48.1" height="168.03"/><rect class="cls-10" x="515.34" y="1641.36" width="48.1" height="168.03"/><polygon class="cls-11" points="467.24 1809.38 479.16 1809.38 479.16 1662.32 563.45 1662.32 563.45 1641.36 467.24 1641.36 467.24 1809.38"/><rect class="cls-10" x="613.96" y="1861.36" width="48.1" height="168.03"/><rect class="cls-10" x="662.06" y="1861.36" width="48.1" height="168.03"/><polygon class="cls-11" points="613.96 2029.38 625.88 2029.38 625.88 1882.32 710.17 1882.32 710.17 1861.36 613.96 1861.36 613.96 2029.38"/><rect class="cls-10" x="467.24" y="1861.36" width="48.1" height="168.03"/><rect class="cls-7" x="446.68" y="1970.38" width="88.85" height="59"/><rect class="cls-7" x="491.28" y="1970.38" width="0.01" height="59" transform="translate(982.58 3999.77) rotate(180)"/><polygon class="cls-11" points="467.24 2029.38 479.16 2029.38 479.16 1882.32 515.35 1882.32 515.35 1861.36 467.24 1861.36 467.24 2029.38"/><rect class="cls-10" x="662.06" y="1641.36" width="48.1" height="168.03"/><rect class="cls-7" x="641.51" y="1750.38" width="88.85" height="59"/><rect class="cls-7" x="686.1" y="1750.38" width="0.01" height="59" transform="translate(1372.22 3559.77) rotate(180)"/><polygon class="cls-11" points="662.06 1809.38 673.98 1809.38 673.98 1662.32 710.17 1662.32 710.17 1641.36 662.06 1641.36 662.06 1809.38"/><rect class="cls-10" x="467.24" y="2079.22" width="48.1" height="168.03"/><rect class="cls-10" x="515.34" y="2079.22" width="48.1" height="168.03"/><polygon class="cls-11" points="467.24 2247.24 479.16 2247.24 479.16 2100.18 563.45 2100.18 563.45 2079.22 467.24 2079.22 467.24 2247.24"/><rect class="cls-10" x="662.06" y="2079.22" width="48.1" height="168.03"/><polygon class="cls-11" points="662.06 2247.24 673.98 2247.24 673.98 2100.18 710.17 2100.18 710.17 2079.22 662.06 2079.22 662.06 2247.24"/><polygon class="cls-4" points="627.35 1551.76 454.35 1551.76 563.45 1445.76 736.45 1445.76 627.35 1551.76"/><polygon class="cls-12" points="570.85 1551.76 511.85 1551.76 620.95 1445.76 679.95 1445.76 570.85 1551.76"/><polygon class="cls-12" points="662.06 1518.03 489.06 1518.03 526.39 1481.76 699.39 1481.76 662.06 1518.03"/><polygon class="cls-7" points="627.35 1551.76 454.35 1551.76 563.45 1445.76 736.45 1445.76 627.35 1551.76"/><rect class="cls-8" x="3510.79" y="1596.18" width="343.43" height="650.86"/><rect class="cls-7" x="3510.79" y="1596.18" width="343.43" height="650.86"/><rect class="cls-9" x="3730.82" y="1809.18" width="88.85" height="22"/><rect class="cls-9" x="3536" y="2029.18" width="88.85" height="22"/><rect class="cls-10" x="3556.56" y="1641.15" width="48.1" height="168.03"/><rect class="cls-10" x="3604.66" y="1641.15" width="48.1" height="168.03"/><polygon class="cls-11" points="3556.56 1809.18 3568.47 1809.18 3568.47 1662.11 3652.76 1662.11 3652.76 1641.15 3556.56 1641.15 3556.56 1809.18"/><rect class="cls-10" x="3703.27" y="1861.15" width="48.1" height="168.03"/><rect class="cls-10" x="3751.38" y="1861.15" width="48.1" height="168.03"/><polygon class="cls-11" points="3703.27 2029.18 3715.19 2029.18 3715.19 1882.11 3799.48 1882.11 3799.48 1861.15 3703.27 1861.15 3703.27 2029.18"/><rect class="cls-10" x="3556.56" y="1861.15" width="48.1" height="168.03"/><rect class="cls-7" x="3536" y="1970.18" width="88.85" height="59"/><rect class="cls-7" x="3580.6" y="1970.18" width="0.01" height="59" transform="translate(7161.21 3999.36) rotate(180)"/><polygon class="cls-11" points="3556.56 2029.18 3568.47 2029.18 3568.47 1882.11 3604.66 1882.11 3604.66 1861.15 3556.56 1861.15 3556.56 2029.18"/><rect class="cls-10" x="3751.38" y="1641.15" width="48.1" height="168.03"/><rect class="cls-7" x="3730.82" y="1750.18" width="88.85" height="59"/><rect class="cls-7" x="3775.42" y="1750.18" width="0.01" height="59" transform="translate(7550.85 3559.36) rotate(180)"/><polygon class="cls-11" points="3751.38 1809.18 3763.3 1809.18 3763.3 1662.11 3799.48 1662.11 3799.48 1641.15 3751.38 1641.15 3751.38 1809.18"/><rect class="cls-10" x="3556.56" y="2079.01" width="48.1" height="168.03"/><rect class="cls-10" x="3604.66" y="2079.01" width="48.1" height="168.03"/><polygon class="cls-11" points="3556.56 2247.04 3568.47 2247.04 3568.47 2099.97 3652.76 2099.97 3652.76 2079.01 3556.56 2079.01 3556.56 2247.04"/><rect class="cls-10" x="3751.38" y="2079.01" width="48.1" height="168.03"/><polygon class="cls-11" points="3751.38 2247.04 3763.3 2247.04 3763.3 2099.97 3799.48 2099.97 3799.48 2079.01 3751.38 2079.01 3751.38 2247.04"/><rect class="cls-13" x="3510.79" y="1394.69" width="251.86" height="36.16"/><rect class="cls-10" x="3538.61" y="1430.85" width="192.21" height="165.33"/><rect class="cls-11" x="3538.61" y="1430.85" width="192.21" height="26.33"/><rect class="cls-14" x="3602.65" y="1430.85" width="0.01" height="165.33" transform="translate(7205.32 3027.03) rotate(180)"/><rect class="cls-14" x="3667.29" y="1430.85" width="0.01" height="165.33" transform="translate(7334.59 3027.03) rotate(180)"/><circle class="cls-8" cx="3819.67" cy="1498.89" r="59.91" transform="translate(1483.3 4872) rotate(-76.72)"/><path class="cls-4" d="M3848,1463.11a46.51,46.51,0,0,1-72.52,50.61,46.51,46.51,0,1,0,72.52-50.61Z" transform="translate(0 0)"/><circle class="cls-7" cx="3819.67" cy="1498.89" r="59.91" transform="translate(1483.3 4872) rotate(-76.72)"/><rect class="cls-7" x="3821.88" y="1531.73" height="64.45"/><rect class="cls-9" x="1598.98" y="2028.28" width="88.84" height="22"/><rect class="cls-9" x="1793.8" y="1808.28" width="88.85" height="22"/><rect class="cls-10" x="1619.54" y="1517.39" width="48.1" height="290.89"/><rect class="cls-10" x="1667.64" y="1517.39" width="48.1" height="290.89"/><polygon class="cls-11" points="1619.54 1808.29 1631.46 1808.29 1631.46 1538.36 1715.74 1538.36 1715.74 1517.39 1619.54 1517.39 1619.54 1808.29"/><rect class="cls-10" x="1766.26" y="1860.26" width="48.1" height="168.03"/><rect class="cls-10" x="1814.36" y="1860.26" width="48.1" height="168.03"/><polygon class="cls-11" points="1766.26 2028.29 1778.17 2028.29 1778.17 1881.22 1862.46 1881.22 1862.46 1860.26 1766.26 1860.26 1766.26 2028.29"/><rect class="cls-10" x="1814.36" y="1640.26" width="48.1" height="168.03"/><rect class="cls-7" x="1793.8" y="1749.28" width="88.85" height="59"/><rect class="cls-7" x="1838.4" y="1749.28" width="0.01" height="59" transform="translate(3676.81 3557.57) rotate(180)"/><polygon class="cls-11" points="1814.36 1808.29 1826.28 1808.29 1826.28 1661.22 1862.46 1661.22 1862.46 1640.26 1814.36 1640.26 1814.36 1808.29"/><rect class="cls-10" x="1619.54" y="2078.12" width="48.1" height="168.03"/><rect class="cls-10" x="1667.64" y="2078.12" width="48.1" height="168.03"/><polygon class="cls-11" points="1619.54 2246.14 1631.46 2246.14 1631.46 2099.08 1715.74 2099.08 1715.74 2078.12 1619.54 2078.12 1619.54 2246.14"/><rect class="cls-10" x="1814.36" y="2078.12" width="48.1" height="168.03"/><polygon class="cls-11" points="1814.36 2246.14 1826.28 2246.14 1826.28 2099.08 1862.46 2099.08 1862.46 2078.12 1814.36 2078.12 1814.36 2246.14"/><rect class="cls-10" x="1619.54" y="1860.26" width="48.1" height="168.03"/><rect class="cls-7" x="1598.98" y="1969.28" width="88.84" height="59"/><rect class="cls-7" x="1643.58" y="1969.28" width="0.01" height="59" transform="translate(3287.17 3997.57) rotate(180)"/><polygon class="cls-11" points="1619.54 2028.29 1631.46 2028.29 1631.46 1881.22 1667.64 1881.22 1667.64 1860.26 1619.54 1860.26 1619.54 2028.29"/><circle class="cls-4" cx="976.66" cy="2097.52" r="43.39" transform="translate(-1318.56 1805.27) rotate(-57.78)"/><circle class="cls-7" cx="976.66" cy="2097.52" r="43.39" transform="translate(-1318.56 1805.27) rotate(-57.78)"/><circle class="cls-8" cx="916.74" cy="2012.24" r="81.83" transform="translate(-1154.36 1237.6) rotate(-45)"/><path class="cls-4" d="M958.72,1958.21a69.27,69.27,0,0,1-108,75.39,69.27,69.27,0,1,0,108-75.39Z" transform="translate(0 0)"/><circle class="cls-7" cx="916.74" cy="2012.24" r="81.83" transform="translate(-1154.36 1237.6) rotate(-45)"/><rect class="cls-7" x="919.77" y="2057.1" height="189.02" transform="translate(1839.54 4303.22) rotate(180)"/><polygon class="cls-7" points="919.77 2133.27 919.77 2133.27 866.41 2079.91 866.41 2079.91 919.77 2133.27"/><polygon class="cls-7" points="919.77 2167.59 919.77 2167.59 973.13 2114.23 973.13 2114.23 919.77 2167.59"/><circle class="cls-8" cx="850.78" cy="2101.9" r="50.99"/><path class="cls-4" d="M874.43,2072.12a38.85,38.85,0,0,1-60.58,42.28,38.85,38.85,0,1,0,60.58-42.28Z" transform="translate(0 0)"/><circle class="cls-7" cx="850.78" cy="2101.9" r="50.99"/><rect class="cls-8" x="2008.67" y="2028.28" width="715.37" height="217.84"/><rect class="cls-10" x="2311.15" y="1322.84" width="412.89" height="705.45"/><rect class="cls-7" x="2008.67" y="2028.28" width="715.37" height="217.84"/><polygon class="cls-1" points="2311.15 1322.84 2311.86 1528.58 2311.86 1699.42 2687.74 1323.53 2311.15 1322.84"/><polygon class="cls-1" points="2724.04 1534.46 2311.86 1946.64 2311.86 1986.46 2724.04 1574.28 2724.04 1534.46"/><polygon class="cls-1" points="2724.04 1367.29 2311.86 1779.47 2311.86 1919.88 2724.04 1507.7 2724.04 1367.29"/><rect class="cls-5" x="2407.49" y="1329.72" width="0.01" height="698.56" transform="translate(4814.98 3358.01) rotate(180)"/><rect class="cls-5" x="2510.7" y="1329.72" width="0.01" height="698.56" transform="translate(5021.41 3358.01) rotate(180)"/><rect class="cls-5" x="2613.93" y="1329.72" width="0.01" height="698.56" transform="translate(5227.87 3358.01) rotate(180)"/><rect class="cls-5" x="2311.15" y="1491.16" width="406" height="0.01"/><rect class="cls-5" x="2311.15" y="1669.72" width="406" height="0.01"/><rect class="cls-5" x="2311.15" y="1856.61" width="406" height="0.01"/><rect class="cls-7" x="2311.15" y="1322.84" width="412.89" height="705.45"/><rect class="cls-7" x="2414.37" y="1322.84" width="0.01" height="705.45" transform="translate(4828.76 3351.12) rotate(180)"/><rect class="cls-7" x="2517.59" y="1322.84" width="0.01" height="705.45" transform="translate(5035.18 3351.12) rotate(180)"/><rect class="cls-7" x="2620.82" y="1322.84" width="0.01" height="705.45" transform="translate(5241.64 3351.12) rotate(180)"/><rect class="cls-7" x="2311.15" y="1484.27" width="412.89" height="0.01"/><rect class="cls-7" x="2311.15" y="1662.83" width="412.89" height="0.01"/><rect class="cls-7" x="2311.15" y="1849.72" width="412.89" height="0.01"/><rect class="cls-7" x="2414.38" y="1460.04" width="0.01" height="48.49" transform="translate(3072.06 4241.06) rotate(-135)"/><rect class="cls-7" x="2414.38" y="1460.04" width="0.01" height="48.49" transform="translate(-342.39 2141.96) rotate(-45)"/><rect class="cls-7" x="2517.59" y="1460.03" width="0.01" height="48.49" transform="translate(3248.26 4314.03) rotate(-135)"/><rect class="cls-7" x="2517.59" y="1460.03" width="0.01" height="48.49" transform="translate(-312.16 2214.94) rotate(-45)"/><rect class="cls-7" x="2620.82" y="1460.04" width="0.01" height="48.49" transform="translate(3424.48 4387.04) rotate(-135)"/><rect class="cls-7" x="2620.82" y="1460.04" width="0.01" height="48.49" transform="translate(-281.93 2287.94) rotate(-45)"/><rect class="cls-7" x="2414.38" y="1638.58" width="0.01" height="48.49" transform="translate(2945.81 4545.85) rotate(-135)"/><rect class="cls-7" x="2414.38" y="1638.58" width="0.01" height="48.49" transform="translate(-468.64 2194.26) rotate(-45)"/><rect class="cls-7" x="2517.59" y="1638.58" width="0.01" height="48.49" transform="translate(3122.01 4618.83) rotate(-135)"/><rect class="cls-7" x="2517.59" y="1638.58" width="0.01" height="48.49" transform="translate(-438.41 2267.24) rotate(-45)"/><rect class="cls-7" x="2620.82" y="1638.58" width="0.01" height="48.49" transform="translate(3298.23 4691.83) rotate(-135)"/><rect class="cls-7" x="2620.82" y="1638.58" width="0.01" height="48.49" transform="translate(-408.18 2340.24) rotate(-45)"/><rect class="cls-7" x="2414.38" y="1817.13" width="0.01" height="48.49" transform="translate(2819.56 4850.65) rotate(-135)"/><rect class="cls-7" x="2414.38" y="1817.13" width="0.01" height="48.49" transform="translate(-594.89 2246.55) rotate(-45)"/><rect class="cls-7" x="2517.59" y="1817.12" width="0.01" height="48.49" transform="translate(2995.76 4923.62) rotate(-135)"/><rect class="cls-7" x="2517.59" y="1817.12" width="0.01" height="48.49" transform="translate(-564.66 2319.53) rotate(-45)"/><rect class="cls-7" x="2620.82" y="1817.13" width="0.01" height="48.49" transform="translate(3171.98 4996.63) rotate(-135)"/><rect class="cls-7" x="2620.82" y="1817.13" width="0.01" height="48.49" transform="translate(-534.43 2392.53) rotate(-45)"/><rect class="cls-10" x="2366.35" y="2071.44" width="308.03" height="174.68"/><rect class="cls-7" x="2414.37" y="2071.44" width="206.44" height="174.68"/><rect class="cls-7" x="2517.94" y="2071.44" width="0.01" height="174.68" transform="translate(5035.88 4317.56) rotate(180)"/><rect class="cls-10" x="2231.68" y="2071.44" width="50.37" height="50.37"/><rect class="cls-10" x="2144.3" y="2071.44" width="50.37" height="50.37"/><polygon class="cls-11" points="2366.35 2246.14 2393.87 2246.14 2393.87 2121.82 2674.38 2121.82 2674.38 2071.44 2366.35 2071.44 2366.35 2246.14"/><circle class="cls-8" cx="2230.68" cy="1930.99" r="59.91" transform="translate(-32.69 3823.56) rotate(-80.78)"/><path class="cls-4" d="M2259,1895.22a46.5,46.5,0,0,1-72.51,50.61,46.5,46.5,0,1,0,72.51-50.61Z" transform="translate(0 0)"/><circle class="cls-7" cx="2230.68" cy="1930.99" r="59.91" transform="translate(-32.69 3823.56) rotate(-80.78)"/><rect class="cls-7" x="2232.9" y="1963.83" height="64.45"/><circle class="cls-8" cx="2005.64" cy="2064.68" r="81.83" transform="translate(-246.63 3857.11) rotate(-84.35)"/><path class="cls-4" d="M2047.93,2010.17a69.81,69.81,0,0,1-108.85,76,69.81,69.81,0,1,0,108.85-76Z" transform="translate(0 0)"/><circle class="cls-7" cx="2005.64" cy="2064.68" r="81.83" transform="translate(-246.63 3857.11) rotate(-84.35)"/><rect class="cls-7" x="2008.67" y="2109.54" height="136.6" transform="translate(4017.33 4355.69) rotate(180)"/><polygon class="cls-7" points="2008.67 2185.71 2008.67 2185.71 1955.31 2132.36 1955.31 2132.36 2008.67 2185.71"/><circle class="cls-8" cx="1939.68" cy="2154.35" r="50.99"/><path class="cls-4" d="M1963.25,2124.68a38.71,38.71,0,0,1-60.37,42.13,38.72,38.72,0,1,0,60.37-42.13Z" transform="translate(0 0)"/><circle class="cls-7" cx="1939.68" cy="2154.35" r="50.99"/><circle class="cls-8" cx="3428.25" cy="2064.68" r="81.83" transform="translate(1035.81 5272.8) rotate(-84.35)"/><path class="cls-4" d="M3470.55,2010.17a69.81,69.81,0,0,1-108.85,76,69.81,69.81,0,1,0,108.85-76Z" transform="translate(0 0)"/><circle class="cls-7" cx="3428.25" cy="2064.68" r="81.83" transform="translate(1035.81 5272.8) rotate(-84.35)"/><rect class="cls-7" x="3431.28" y="2109.54" height="136.6" transform="translate(6862.56 4355.69) rotate(180)"/><polygon class="cls-7" points="3431.28 2185.71 3431.28 2185.71 3377.92 2132.36 3377.92 2132.36 3431.28 2185.71"/><circle class="cls-8" cx="3362.29" cy="2154.35" r="50.99"/><path class="cls-4" d="M3385.87,2124.68a38.71,38.71,0,0,1-60.37,42.13,38.72,38.72,0,1,0,60.37-42.13Z" transform="translate(0 0)"/><circle class="cls-7" cx="3362.29" cy="2154.35" r="50.99"/><rect class="cls-8" x="268.85" y="2180.09" width="123.72" height="67.12"/><rect class="cls-13" x="289.89" y="2180.09" width="16.61" height="33.56"/><rect class="cls-13" x="323.85" y="2180.09" width="16.61" height="33.56"/><rect class="cls-13" x="357.81" y="2180.09" width="16.61" height="33.56"/><rect class="cls-13" x="269.14" y="2214.01" width="123.43" height="33.21"/><rect class="cls-7" x="268.85" y="2180.09" width="123.72" height="67.12"/><polygon class="cls-13" points="2258.72 2246.12 2258.72 2216.05 2298.29 2216.05 2298.29 2180.38 2311.15 2180.38 2311.15 2246.12 2258.72 2246.12"/><polygon class="cls-13" points="2175.9 2246.12 2175.9 2216.05 2136.33 2216.05 2136.33 2180.38 2123.46 2180.38 2123.46 2246.12 2175.9 2246.12"/><rect class="cls-13" x="2169.13" y="2191.11" width="100.53" height="0.01"/><rect class="cls-13" x="2219.39" y="2191.11" width="0.01" height="55.41" transform="translate(4438.79 4437.63) rotate(180)"/><rect class="cls-8" x="2809.71" y="1579.59" width="398.84" height="667.45"/><rect class="cls-6" x="2836.58" y="2036.33" width="371.97" height="0.01"/><rect class="cls-6" x="2836.58" y="1998.4" width="371.97" height="0.01"/><rect class="cls-6" x="2836.58" y="1884.61" width="371.97" height="0.01"/><rect class="cls-6" x="2836.58" y="1846.68" width="371.97" height="0.01"/><rect class="cls-6" x="2836.58" y="1808.75" width="371.97" height="0.01"/><rect class="cls-6" x="2836.58" y="1770.82" width="371.97" height="0.01"/><rect class="cls-6" x="2836.58" y="1732.89" width="371.97" height="0.01"/><rect class="cls-6" x="2836.58" y="1998.4" width="371.97" height="0.01"/><rect class="cls-6" x="2836.58" y="1960.47" width="371.97" height="0.01"/><rect class="cls-6" x="2836.58" y="1922.54" width="371.97" height="0.01"/><rect class="cls-6" x="2836.58" y="1619.1" width="371.97" height="0.01"/><rect class="cls-6" x="2836.58" y="1732.89" width="371.97" height="0.01"/><rect class="cls-6" x="2836.58" y="1694.96" width="371.97" height="0.01"/><rect class="cls-6" x="2836.58" y="1657.03" width="371.97" height="0.01"/><rect class="cls-4" x="2809.71" y="2078.88" width="71.34" height="88.5"/><rect class="cls-7" x="2836.58" y="2102.62" width="44.47" height="144.65"/><polygon class="cls-4" points="3141.49 1579.31 3140.78 1579.31 3079.46 1579.31 3079.46 1909.36 3141.49 1909.36 3141.49 1579.31"/><polygon class="cls-4" points="2977.77 2078.6 2926.92 2078.6 2926.92 2246.97 2969.27 2246.97 2969.27 2137.49 3208.54 2137.49 3208.54 2078.6 2977.77 2078.6"/><rect class="cls-6" x="2953.39" y="2105.67" width="228.69" height="23.51"/><rect class="cls-6" x="2953.39" y="2152.7" width="228.69" height="23.51"/><rect class="cls-6" x="2953.39" y="2199.73" width="228.69" height="23.51"/><rect class="cls-7" x="2953.39" y="2105.67" width="228.69" height="141.09"/><rect class="cls-7" x="2809.71" y="1579.59" width="398.84" height="667.45"/><polygon class="cls-13" points="2926.92 1909.64 2926.92 1534.43 3104.88 1534.43 3104.88 1488.4 2881.04 1488.4 2881.04 1909.64 2881.04 2078.88 2881.04 2247.04 2926.92 2247.04 2926.92 2078.88 3333.69 2078.88 3333.69 1909.64 2926.92 1909.64"/><rect class="cls-4" x="2926.92" y="1534.43" width="152.54" height="374.93"/><polygon class="cls-1" points="3079.46 1552.68 2926.4 1705.74 2926.4 1846.15 3079.46 1693.1 3079.46 1552.68"/><polygon class="cls-11" points="3079.46 1556.95 3079.46 1534.43 2926.92 1534.43 2926.92 1909.64 2937.86 1909.64 2937.86 1556.95 3079.46 1556.95"/><rect class="cls-4" x="2926.92" y="1951.07" width="378.67" height="44.9"/><rect class="cls-7" x="2926.92" y="1534.43" width="152.54" height="375.21"/><rect class="cls-7" x="2926.92" y="1699.42" width="152.54" height="58.98"/><rect class="cls-7" x="2957.8" y="1534.43" width="89.99" height="375.21"/><rect class="cls-7" x="2926.92" y="1951.07" width="378.67" height="44.9"/><rect class="cls-7" x="2957.8" y="1951.07" width="89.99" height="44.9"/><rect class="cls-7" x="3079.46" y="1951.07" width="89.99" height="44.9"/><rect class="cls-7" x="3203.43" y="1951.07" width="102.17" height="44.9"/><rect class="cls-13" x="2750.82" y="2062.67" width="152.1" height="16.2"/><rect class="cls-7" x="2926.92" y="1857.46" width="406.77" height="52.18"/><rect class="cls-7" x="3169.45" y="1857.46" width="39.09" height="52.18"/><rect class="cls-7" x="3305.59" y="1857.46" width="28.1" height="52.18"/><rect class="cls-13" x="2926.92" y="1857.46" width="406.77" height="15.86"/><polygon class="cls-13" points="1510.93 1701 1510.93 1649.21 1476.8 1649.21 1341.28 1649.21 1341.28 1472.02 1341.28 1297.84 1171.12 1297.84 1171.12 1472.02 989.95 1472.02 989.95 1523.81 1171.12 1523.81 1171.12 1649.21 989.95 1649.21 989.95 1701 1171.12 1701 1171.12 1826.4 989.95 1826.4 989.95 1878.19 1171.12 1878.19 1171.12 2003.59 989.95 2003.59 989.95 2055.38 1171.12 2055.38 1171.12 2247.28 1327.95 2247.28 1334.61 2247.28 1343.44 2247.28 1341.28 2247.28 1341.28 2055.17 1510.93 2055.17 1510.93 2003.38 1341.28 2003.38 1341.28 1878.19 1510.93 1878.19 1510.93 1826.4 1341.28 1826.4 1341.28 1701 1510.93 1701"/><rect class="cls-8" x="1341.28" y="1472.02" width="135.52" height="177.19"/><rect class="cls-8" x="1341.28" y="1701" width="135.52" height="125.4"/><rect class="cls-8" x="1341.28" y="1878.19" width="135.52" height="125.19"/><rect class="cls-8" x="1341.28" y="2055.17" width="135.52" height="191.91"/><rect class="cls-8" x="1035.59" y="1701" width="135.52" height="125.4"/><rect class="cls-8" x="1035.59" y="1523.81" width="135.52" height="125.4"/><rect class="cls-8" x="1035.59" y="1878.19" width="135.52" height="125.19"/><rect class="cls-8" x="1035.59" y="2055.17" width="135.52" height="191.91"/><rect class="cls-4" x="1224.41" y="1701" width="61.4" height="125.4"/><rect class="cls-4" x="1341.28" y="1878.19" width="61.4" height="125.4"/><rect class="cls-4" x="1341.28" y="2055.17" width="61.4" height="192.12"/><rect class="cls-4" x="1341.28" y="1523.81" width="61.4" height="125.4"/><rect class="cls-4" x="1341.28" y="1701" width="61.4" height="125.4"/><rect class="cls-4" x="1109.72" y="1878.19" width="61.4" height="125.4"/><rect class="cls-4" x="1109.72" y="2055.17" width="61.4" height="192.12"/><rect class="cls-4" x="1109.72" y="1523.81" width="61.4" height="125.4"/><rect class="cls-4" x="1109.72" y="1701" width="61.4" height="125.4"/><rect class="cls-4" x="1224.41" y="1373.14" width="61.4" height="276.08"/><rect class="cls-4" x="1224.41" y="1878.19" width="61.4" height="125.4"/><rect class="cls-4" x="1224.41" y="2055.17" width="61.4" height="192.12"/><polygon class="cls-11" points="1224.41 1826.4 1235.51 1826.4 1235.51 1720.51 1285.81 1720.51 1285.81 1701 1224.41 1701 1224.41 1826.4"/><polygon class="cls-11" points="1224.41 1649.21 1235.51 1649.21 1235.51 1392.64 1285.81 1392.64 1285.81 1373.14 1224.41 1373.14 1224.41 1649.21"/><polygon class="cls-11" points="1224.41 2003.59 1235.51 2003.59 1235.51 1897.7 1285.81 1897.7 1285.81 1878.19 1224.41 1878.19 1224.41 2003.59"/><polygon class="cls-11" points="1224.41 2247.28 1235.51 2247.28 1235.51 2074.68 1285.81 2074.68 1285.81 2055.17 1224.41 2055.17 1224.41 2247.28"/><rect class="cls-4" x="1402.67" y="1878.19" width="74.13" height="22.96"/><rect class="cls-4" x="1341.28" y="1472.02" width="26.21" height="51.79"/><polygon class="cls-11" points="1341.28 1523.81 1341.28 1649.21 1375.09 1649.21 1375.09 1546.18 1402.67 1546.18 1402.67 1523.81 1341.28 1523.81"/><polygon class="cls-11" points="1341.28 1878.19 1341.28 2003.59 1375.09 2003.59 1375.09 1904.38 1402.67 1904.38 1402.67 1878.19 1341.28 1878.19"/><rect class="cls-4" x="1402.67" y="1701" width="74.13" height="22.96"/><polygon class="cls-11" points="1341.28 1701 1341.28 1826.4 1375.09 1826.4 1375.09 1727.19 1402.67 1727.19 1402.67 1701 1341.28 1701"/><rect class="cls-4" x="1402.67" y="2055.17" width="74.13" height="22.96"/><polygon class="cls-11" points="1341.28 2055.17 1341.28 2247.28 1375.09 2247.28 1375.09 2081.36 1402.67 2081.36 1402.67 2055.17 1341.28 2055.17"/><polygon class="cls-11" points="1109.72 1524.02 1109.72 1649.42 1120.54 1649.42 1120.54 1546.39 1171.12 1546.39 1171.12 1524.02 1109.72 1524.02"/><polygon class="cls-11" points="1109.72 1878.4 1109.72 2003.8 1120.54 2003.8 1120.54 1904.59 1171.12 1904.59 1171.12 1878.4 1109.72 1878.4"/><polygon class="cls-11" points="1109.72 1701.21 1109.72 1826.61 1120.54 1826.61 1120.54 1727.4 1171.12 1727.4 1171.12 1701.21 1109.72 1701.21"/><polygon class="cls-11" points="1109.72 2055.38 1109.72 2247.49 1120.54 2247.49 1120.54 2081.57 1171.12 2081.57 1171.12 2055.38 1109.72 2055.38"/><rect class="cls-4" x="1171.12" y="1297.84" width="170.16" height="20.81"/><polygon class="cls-7" points="1510.93 1701 1510.93 1649.21 1476.8 1649.21 1341.28 1649.21 1341.28 1472.02 1341.28 1297.84 1171.12 1297.84 1169.78 1472.02 988.62 1472.02 989.95 1523.81 1171.12 1523.81 1171.12 1649.21 989.95 1649.21 989.95 1701 1171.12 1701 1171.12 1826.4 989.95 1826.4 989.95 1878.19 1171.12 1878.19 1171.12 2003.59 989.95 2003.59 989.95 2055.38 1171.12 2055.38 1171.12 2247.28 1327.95 2247.28 1334.61 2247.28 1343.44 2247.28 1341.28 2247.28 1341.28 2055.17 1510.93 2055.17 1510.93 2003.38 1341.28 2003.38 1341.28 1878.19 1510.93 1878.19 1510.93 1826.4 1341.28 1826.4 1341.28 1701 1510.93 1701"/><rect class="cls-7" x="1341.28" y="1472.02" width="135.52" height="177.19"/><rect class="cls-7" x="1341.28" y="1701" width="135.52" height="125.4"/><rect class="cls-7" x="1341.28" y="1878.19" width="135.52" height="125.19"/><rect class="cls-7" x="1341.28" y="2055.17" width="135.52" height="191.91"/><rect class="cls-7" x="1035.59" y="1701" width="135.52" height="125.4"/><rect class="cls-7" x="1035.59" y="1523.81" width="135.52" height="125.4"/><rect class="cls-7" x="1035.59" y="1878.19" width="135.52" height="125.19"/><rect class="cls-7" x="1035.59" y="2055.17" width="135.52" height="191.91"/><rect class="cls-13" x="1155.24" y="1276.55" width="199.75" height="21.3"/><rect class="cls-7" x="1109.72" y="1523.81" width="61.4" height="125.4"/><rect class="cls-7" x="1109.72" y="1701" width="61.4" height="125.4"/><rect class="cls-7" x="1109.72" y="1878.19" width="61.4" height="125.4"/><rect class="cls-7" x="1109.72" y="2055.38" width="61.4" height="191.9"/><rect class="cls-7" x="1224.41" y="1701" width="61.4" height="125.4"/><rect class="cls-7" x="1341.28" y="1878.19" width="61.4" height="125.4"/><rect class="cls-7" x="1341.28" y="2055.17" width="61.4" height="192.12"/><rect class="cls-7" x="1341.28" y="1523.81" width="61.4" height="125.4"/><rect class="cls-7" x="1341.28" y="1701" width="61.4" height="125.4"/><rect class="cls-7" x="1224.41" y="1373.14" width="61.4" height="276.08"/><rect class="cls-7" x="1224.41" y="1878.19" width="61.4" height="125.4"/><rect class="cls-7" x="1224.41" y="2055.17" width="61.4" height="192.12"/></svg>